<svg width="318" height="318" viewBox="0 0 318 318" fill="none" xmlns="http://www.w3.org/2000/svg">
<path d="M159.988 2.59339L176.903 109.096C177.254 111.307 179.816 112.368 181.628 111.053L268.898 47.7055C269.819 47.0368 270.963 48.181 270.295 49.1022L206.947 136.372C205.632 138.184 206.693 140.746 208.904 141.097L315.407 158.012C316.531 158.191 316.531 159.809 315.407 159.988L208.904 176.903C206.693 177.254 205.632 179.816 206.947 181.628L270.295 268.898C270.963 269.819 269.819 270.963 268.898 270.295L181.628 206.947C179.816 205.632 177.254 206.693 176.903 208.904L159.988 315.407C159.809 316.531 158.191 316.531 158.012 315.407L141.097 208.904C140.746 206.693 138.184 205.632 136.372 206.947L49.1022 270.295C48.181 270.963 47.0368 269.819 47.7055 268.898L111.053 181.628C112.368 179.816 111.307 177.254 109.096 176.903L2.59339 159.988C1.4692 159.809 1.4692 158.191 2.59339 158.012L109.096 141.097C111.307 140.746 112.368 138.184 111.053 136.372L47.7055 49.1022C47.0368 48.181 48.181 47.0368 49.1022 47.7055L136.372 111.053C138.184 112.368 140.746 111.307 141.097 109.096L158.012 2.59339C158.191 1.4692 159.809 1.4692 159.988 2.59339Z" stroke="#1A1A1A" stroke-width="2"/>
</svg>
